# xmcd
#
# Track frame offsets: 
#        150
#        20714
#        34539
#        58614
#        81224
#        98399
#        119318
#        147995
#        176000
#        207922
#        225254
#        236024
#        253698
#
# Disc length: 3488 seconds
#
# Revision: 0
# Processed by: cddbd v1.5.2PL0 Copyright (c) Steve Scherf et al.
# Submitted via: ExactAudioCopyFreeDBPlugin 1.0
#
DISCID=a40d9e0d
DTITLE=Big Brother and The Holding Company - Can't Go Home Again
DYEAR=1997
DGENRE=Blues Rock
TTITLE0=Don't You Call Me Cryin'
TTITLE1=I Know
TTITLE2=As The Years Go Passing By
TTITLE3=Three Times Last Week
TTITLE4=Heartache
TTITLE5=Tired Of It All
TTITLE6=I Can't Go Home Again
TTITLE7=Machine Song
TTITLE8=Havana Ghila
TTITLE9=Try It
TTITLE10=Drivin' Stupid
TTITLE11=Ghost Riders In The Sky
TTITLE12=Ghost Riders (Reprise)
EXTD=
EXTT0=
EXTT1=
EXTT2=
EXTT3=
EXTT4=
EXTT5=
EXTT6=
EXTT7=
EXTT8=
EXTT9=
EXTT10=
EXTT11=
EXTT12=
PLAYORDER=
